<?xml version="1.0" encoding="utf-8"?>
<!-- Generator: Adobe Illustrator 19.0.0, SVG Export Plug-In . SVG Version: 6.00 Build 0)  -->
<svg version="1.1" id="Capa_1" xmlns="http://www.w3.org/2000/svg" xmlns:xlink="http://www.w3.org/1999/xlink" x="0px" y="0px"
	 viewBox="0 0 289.9 218" style="enable-background:new 0 0 289.9 218;" xml:space="preserve">
<style type="text/css">
	.st0{fill:#333333;}
</style>
<g id="XMLID_2_">
	<g id="XMLID_15_">
		<g id="XMLID_35_">
			<path id="XMLID_51_" class="st0" d="M30.9,146.8c-0.7-0.7-0.9-1.3-0.6-1.8c0.3-1.1,1.5-2.2,3.6-3.3c2.1-1.1,4.8-2.1,8.1-3
				c3.5-1.1,7-2.2,10.5-3.2c3.5-1,7-2,10.6-2.9l8.4-2.4l1.2-0.9c2.7-2,5.2-4.1,7.4-6.2c2.2-2.1,4.1-4.4,5.6-6.8
				c1.4-2.6,1.9-4.5,1.4-5.8c-0.5-1.3-1.7-2.1-3.8-2.6c-2.1-0.5-4.8-0.7-8.1-0.5c-3.3,0.2-6.9,0.6-10.9,1.1c-3.6,0.3-7.3,0.6-10.9,1
				c-3.7,0.4-6.9,0.4-9.6,0.2c-1.4-0.1-2.7-0.3-3.9-0.6c-1.2-0.3-2.2-0.8-3-1.4c-0.8-0.7-1.4-1.5-1.7-2.5c-0.3-1-0.3-2.2,0.2-3.6
				c0.9-3,3-6.1,6.2-9.3c3.2-3.2,7.2-6.4,11.8-9.6c4.7-3.2,9.8-6.2,15.5-9c5.7-2.8,11.4-5.4,17.1-7.7c5.4-2.2,10.9-4.2,16.5-5.9
				c5.6-1.7,10.7-2.9,15.4-3.7c4.7-0.8,8.6-0.9,11.8-0.3c3.2,0.6,5.1,1.9,5.7,4.1c0.7,2.3,0.3,4.8-1.1,7.5c-1.5,2.7-3.5,5.4-6.3,8.1
				s-5.9,5.3-9.6,7.8c-3.7,2.5-7.4,4.8-11.1,6.8c-3.7,1.9-7.5,3.6-11.5,5.1c-3.9,1.5-7.5,2.4-10.9,2.9c-3.3,0.5-6.1,0.4-8.3-0.3
				c-2.2-0.7-3.5-2.4-3.8-5c-0.1-1.3,0.3-2.7,1.3-4.2c1-1.5,2.2-3,3.8-4.6c1.6-1.6,3.5-3.1,5.7-4.6c2.2-1.5,4.4-3,6.7-4.4
				c2.3-1.3,4.7-2.5,7.2-3.7c2.5-1.2,4.9-2.1,7.2-2.9c2.3-0.8,4.4-1.4,6.4-1.8c2-0.4,3.6-0.5,5.1-0.3c1.8,0.5,2.6,1.4,2.5,2.7
				c-0.2,1.3-0.7,2.2-1.6,2.7c-0.8,0.4-1.2,0.3-1.2-0.3c-0.2-0.3-0.3-0.6-0.2-0.8c0.1-0.2,0.2-0.5,0.5-0.7c0.2,0,0.4-0.2,0.5-0.6
				c0.2-0.4,0.1-0.7-0.2-0.9h-0.6l-2.1-0.3c-2.6,0.3-6,1.3-10.2,2.9c-4.2,1.7-8.3,3.7-12.4,6.1c-2.4,1.4-4.7,2.8-6.7,4.3
				c-2.1,1.5-3.8,2.9-5.3,4.2c-1.5,1.4-2.6,2.6-3.4,3.8c-0.8,1.2-1.1,2.2-0.9,3c0.1,1.7,1,2.9,2.8,3.5c1.8,0.6,4.1,0.7,6.9,0.2
				c2.9-0.5,6.2-1.4,9.9-2.7c3.7-1.4,7.6-3.1,11.8-5.2c3.9-2.1,7.6-4.4,11.2-6.9c3.5-2.5,6.6-5,9.1-7.5c2.6-2.5,4.5-4.9,5.7-7.3
				c1.3-2.4,1.6-4.5,1.1-6.4c-0.3-1.2-1.8-2.1-4.4-2.6c-2.6-0.5-6.2-0.4-10.7,0.5c-4.4,0.8-9.4,2-14.9,3.5
				c-5.5,1.6-11.1,3.5-16.8,5.8c-5.8,2.4-11.5,5-17.1,7.8c-5.6,2.8-10.6,5.7-15.2,8.7s-8.3,6-11.4,9c-3.1,3-5,5.9-5.8,8.7
				c-0.6,1.8-0.4,3.1,0.7,3.9c1.1,0.8,2.9,1.3,5.7,1.5c2.7,0.3,5.9,0.3,9.4,0c3.6-0.3,7.3-0.7,11.1-1.2c3.6-0.5,7.2-0.8,10.6-0.9
				c3.5-0.1,6.4,0.1,8.7,0.6c2.7,0.6,4.4,1.8,5.2,3.7c0.8,1.9,0.2,4.4-1.6,7.8c-1.9,3.1-4.6,6.2-8.1,9.3l-2.1,1.5l7.2-2.1
				c6.8-2.1,13.3-4.4,19.4-6.8c6.1-2.4,11.7-5.1,16.8-8c0.6-0.3,1.1-0.1,1.5,0.6c0.4,0.4,0.2,0.8-0.6,1.2
				c-6.3,3.6-13.5,6.9-21.6,9.7c-8,2.9-16.5,5.7-25.5,8.4l-2.1,0.3l-3.9,2.7c-3.9,2.3-8.1,4.3-12.6,6.1c-4.5,1.8-8.8,3.3-13,4.7
				c-3,1.1-5.5,1.8-7.5,2C33.2,147.5,31.8,147.3,30.9,146.8z M42.1,143.5c3.2-1.1,6.4-2.3,9.6-3.5c3.2-1.2,6.4-2.6,9.7-4.1l3.3-1.8
				l-0.9,0.3c-3.5,1.1-7,2.1-10.6,3c-3.5,0.9-7,1.9-10.6,3c-3.2,0.9-5.7,1.8-7.3,2.6c-1.7,0.8-2.6,1.5-2.9,2h-0.6
				c0.3,0.2,1.3,0.3,2.9,0.2C36.3,145.2,38.8,144.6,42.1,143.5z"/>
			<path id="XMLID_48_" class="st0" d="M118.4,120.6c-1.2-1-1.7-2.2-1.5-3.5c0.2-1.4,0.8-2.7,1.8-3.9c1-1.3,2.2-2.4,3.6-3.4
				c1.4-1,2.7-1.7,3.8-2.1c0.2-0.1,0.5-0.2,1-0.2s0.7,0.2,0.7,0.5c0.2,0.4,0.1,0.8-0.3,1.2c-0.8,0.7-1.8,1.5-3.1,2.5
				c-1.3,1-2.5,1.8-3.7,2.6c-1.2,1.5-1.6,2.9-1.2,4.1c0.3,0.9,1.2,1.4,2.7,1.4s3.2-0.5,5-1.4c-1.1-1-1.6-2.3-1.4-3.8
				c0.2-1.5,0.7-3,1.5-4.4c0.9-1.4,1.9-2.6,3.2-3.6c1.3-1,2.5-1.5,3.6-1.4c0.3,0,0.6,0,0.8,0.1c0.2,0.1,0.5,0.2,0.8,0.5
				c0.6,0.8,0.8,1.8,0.5,3c-0.3,1.2-0.7,2.4-1.4,3.6c-0.7,1.2-1.4,2.3-2.2,3.3c-0.8,1-1.4,1.6-1.8,1.8c1,0.2,2.4,0.1,4.1-0.4
				c1.8-0.5,3.6-1,5.4-1.7c1.9-0.7,3.6-1.4,5.4-2.2c1.7-0.8,3-1.5,3.8-2.1c0.8,0,1.2,0.2,1.2,0.6c0.2,0.4,0.1,0.8-0.3,1.2
				c-1,0.7-2.4,1.5-4.2,2.3c-1.8,0.9-3.7,1.6-5.8,2.3c-2.1,0.7-4.1,1.2-6.2,1.6c-2.1,0.4-3.8,0.4-5.2,0.1c-2.6,1.7-4.8,2.5-6.6,2.4
				C120.5,121.7,119.2,121.3,118.4,120.6z M133.8,107c-0.7-0.1-1.5,0.3-2.4,1.1c-0.9,0.9-1.7,1.8-2.3,2.9c-0.7,1.1-1.1,2.2-1.3,3.4
				c-0.2,1.2,0.1,2,0.9,2.5c0.8-0.7,1.6-1.6,2.4-2.6c0.8-1.1,1.5-2.1,2-3.2c0.6-1.1,0.9-2,1.1-2.8
				C134.3,107.6,134.2,107.1,133.8,107z"/>
			<path id="XMLID_45_" class="st0" d="M147,119.4c0.3-0.3,0.6-0.6,0.9-0.9c0.3-0.3,0.6-0.7,0.9-1.2c1.1-0.9,1.9-1.8,2.3-2.6
				c0.5-0.9,0.8-1.7,1-2.5v-0.3l-0.3,0.3c-0.2,0.2-0.4,0.3-0.5,0.3c-0.1,0-0.3,0.1-0.5,0.3c-0.8,0.5-1.6,1-2.4,1.5
				c-0.8,0.5-1.5,0.9-2.1,1.2c-0.6,0.3-1.1,0.1-1.5-0.6c-0.4-0.4-0.2-0.8,0.6-1.2c0.6-0.3,1.3-0.7,2.1-1.1c0.8-0.4,1.5-0.9,2.1-1.4
				c0.2-0.2,0.4-0.3,0.5-0.4c0.1,0,0.2-0.2,0.5-0.4c0.2-0.1,0.4-0.2,0.6-0.5l0.9-0.9v-0.3c0.2-0.5,0.5-0.8,0.9-0.8
				c0.4,0,0.7,0.2,0.9,0.8c0.3,1.1,0.4,2,0.3,2.8c-0.1,0.8-0.3,1.5-0.6,2.3c3-1.7,5.6-3.1,7.8-4.2c2.2-1.1,4-1.2,5.4-0.3
				c0.5,0.3,0.8,0.8,0.8,1.4c0,0.6-0.2,1.2-0.5,1.7c-0.4,1.2-0.8,2.3-1.2,3.3c-0.4,1-0.7,1.9-0.8,2.6c-0.1,0.7,0,1.2,0.4,1.5
				c0.4,0.3,1.1,0.4,2.2,0.2c2.4-0.5,5.4-1.5,8.9-3.1c3.5-1.6,6.8-3.3,9.8-5.4c0.7-0.4,1.2-0.3,1.5,0.3c0.3,0.6,0.2,1-0.3,1.2
				c-3.3,2.3-6.7,4.2-10.1,5.8c-3.4,1.6-6.8,2.6-10.1,3.2c-2,0.3-3.3,0.1-3.8-0.8c-0.6-0.8-0.8-1.8-0.6-3c0.2-1.2,0.5-2.5,1.1-3.8
				c0.6-1.4,1-2.4,1.2-3.2c-0.2-0.6-0.9-0.7-2.2-0.2c-1.3,0.5-2.7,1.1-4.3,2c-1.6,0.9-3.2,1.9-4.8,2.9c-1.6,1.1-2.7,1.9-3.5,2.5
				c-0.5,0.6-1,1.2-1.4,1.7c-0.4,0.5-0.8,0.8-1.1,0.8c-0.6,0.6-1.1,0.7-1.5,0.2C146.3,120.5,146.4,120,147,119.4z M151.3,104
				c-0.3-0.2-0.5-0.5-0.7-0.8c-0.2-0.3-0.1-0.6,0.1-0.8c0.8-1.4,1.7-2.4,2.6-3c1-0.6,2-1,3.1-1.2c1.2-0.2,2.4-0.2,3.6,0.1
				c1.2,0.3,2.4,0.5,3.6,0.8c1.2,0.5,2.3,0.9,3.4,1.3c1.1,0.4,2.1,0.6,3.2,0.8c1.7,0.3,3,0,3.9-0.9c0.6-0.6,1.1-0.7,1.5-0.3
				c0.3,0.2,0.5,0.5,0.5,0.8c0,0.3-0.2,0.6-0.5,0.8c-0.8,0.9-1.7,1.4-2.8,1.6c-1.1,0.2-2.1,0.1-3.2-0.1c-0.9-0.2-2-0.5-3.2-0.8
				c-1.2-0.4-2.4-0.7-3.5-1c-2.2-0.9-4.3-1.2-6.3-0.9c-1.7,0-3.1,1-4.2,3c-0.2,0.3-0.4,0.5-0.6,0.5C151.7,104,151.5,104,151.3,104z"
				/>
			<path id="XMLID_43_" class="st0" d="M181.1,122.7c-1.2-0.7-1.7-1.8-1.4-3.2c0.3-1.5,1.1-2.9,2.3-4.2c1.2-1.4,2.7-2.6,4.5-3.6
				s3.6-1.6,5.4-1.6c1.2,0,2.3,0.3,3.2,0.8c1,0.5,1.6,1.1,1.9,1.7c0.2,0.3,0.1,0.6-0.2,0.8c-0.4,0.3-0.7,0.3-1,0.1
				c-0.5-0.3-1-0.6-1.4-1c-0.5-0.4-1.3-0.5-2.5-0.5c-1.2,0-2.5,0.4-3.9,1.2c-1.4,0.8-2.6,1.7-3.7,2.8s-1.8,2.1-2.3,3
				c-0.5,1-0.4,1.6,0.2,2c0.9,0.2,2.1,0,3.6-0.7c1.5-0.7,3.1-1.5,4.8-2.4c1.7-1,3.3-2,4.8-3.1c1.6-1.1,2.9-2.1,4-2.9
				c1-0.8,1.7-0.9,2-0.3c0.4,0.6,0.3,1.1-0.2,1.5c-1.3,0.9-2.2,2-2.6,3.4c-0.5,1.4-0.3,2.2,0.4,2.5c0.7,0.3,1.9,0.1,3.5-0.5
				c1.6-0.7,3.3-1.4,5-2.3c1.7-0.9,3.3-1.8,4.8-2.7c1.5-0.9,2.5-1.5,2.9-1.8c0.6-0.3,1.1-0.2,1.4,0.5c0.4,0.6,0.3,1.1-0.2,1.4
				c-0.7,0.4-1.8,1.1-3.3,2c-1.5,1-3.1,1.9-4.9,2.8c-1.8,0.9-3.5,1.7-5.3,2.3c-1.8,0.6-3.2,0.8-4.3,0.5c-1.1-0.3-1.8-1-2-2
				c-0.3-1-0.1-2,0.4-2.9c-1.1,0.8-2.4,1.7-3.9,2.6c-1.5,1-3.1,1.8-4.7,2.5c-1.6,0.7-3.1,1.2-4.4,1.6
				C182.7,123.1,181.7,123.1,181.1,122.7z"/>
			<path id="XMLID_39_" class="st0" d="M209.8,123.6c-0.8-0.4-1.3-1-1.4-1.7c-0.1-0.8,0-1.6,0.3-2.4c0.3-0.9,0.8-1.7,1.4-2.5
				c0.6-0.8,1.2-1.5,1.8-2.1c1.2-1.5,2.7-2.9,4.4-4.1c1.7-1.3,3.3-1.9,4.7-1.9c0.6,0,1.3,0.1,2,0.3c0.7,0.2,1.3,0.6,1.8,1.1
				c0.7-2.6,2-5.5,3.9-8.6c1.9-3.1,4-6,6.3-8.5c2.3-2.6,4.5-4.5,6.8-5.8c2.3-1.3,4.2-1.5,5.8-0.5c0.9,1.1,1,2.6,0.2,4.4
				c-0.8,1.8-1.9,3.7-3.5,5.7c-1.6,2-3.4,4.1-5.4,6.2c-2.1,2.1-3.9,4-5.5,5.7c-1.1,1.1-2.3,2.2-3.5,3.2c-1.2,1.1-2.6,2.3-4.1,3.7
				v0.3c0,0.8,0.1,1.3,0.3,1.5c0.4,0.8,1.2,1.3,2.4,1.4c1.2,0.2,2.7,0,4.4-0.5c1.8-0.5,3.7-1.2,5.8-2.3c2.1-1.1,4.2-2.3,6.3-3.8
				c0.7-0.3,1.2-0.3,1.5,0c0.4,0.7,0.3,1.2-0.3,1.5c-2,1.5-4.2,2.9-6.6,4.1c-2.4,1.3-4.7,2.2-6.9,2.7c-2.2,0.6-4.1,0.6-5.8,0.2
				c-1.7-0.5-2.7-1.7-3.1-3.7c-0.9,0.6-2,1.4-3.2,2.3c-1.3,0.9-2.5,1.7-3.8,2.5c-1.3,0.8-2.6,1.3-3.8,1.7c-1.2,0.4-2.2,0.4-3-0.2
				H209.8z M223.9,112.7v-0.3h-0.3c-0.2,0-0.3-0.2-0.3-0.6c-0.3-0.6-1.1-0.9-2.4-0.9c-0.9-0.2-2.1,0.2-3.5,1.3
				c-1.5,1.1-2.8,2.3-4,3.8c-2.5,2.8-3.4,4.7-2.7,5.7l0.3,0.3c0.3,0.2,1,0.1,2.1-0.5c1.1-0.5,2.3-1.1,3.6-1.9
				c1.3-0.8,2.6-1.6,3.8-2.5c1.3-0.9,2.3-1.7,3.1-2.4L223.9,112.7z M245.7,88.3c-1.3-0.4-3,0.3-5.2,2.1c-2.2,1.8-4.3,4.1-6.3,6.8
				c-2.1,2.7-3.9,5.6-5.5,8.5c-1.6,3-2.6,5.5-2.9,7.5c1.1-0.9,2.5-2.1,4.1-3.7c1.6-1.6,3.3-3.2,5-5.1c1.7-1.8,3.4-3.6,5-5.4
				c1.6-1.8,3-3.5,4.1-5c1.1-1.5,1.9-2.8,2.3-3.8C246.5,89.1,246.4,88.5,245.7,88.3z"/>
			<path id="XMLID_36_" class="st0" d="M243.8,120.6c-1.2-1-1.7-2.2-1.5-3.5c0.2-1.4,0.8-2.7,1.8-3.9c1-1.3,2.2-2.4,3.6-3.4
				c1.4-1,2.7-1.7,3.8-2.1c0.2-0.1,0.5-0.2,1-0.2s0.7,0.2,0.7,0.5c0.2,0.4,0.1,0.8-0.3,1.2c-0.8,0.7-1.8,1.5-3.1,2.5
				c-1.3,1-2.5,1.8-3.7,2.6c-1.2,1.5-1.6,2.9-1.2,4.1c0.3,0.9,1.2,1.4,2.7,1.4s3.2-0.5,5-1.4c-1.1-1-1.6-2.3-1.4-3.8
				c0.2-1.5,0.7-3,1.5-4.4c0.9-1.4,1.9-2.6,3.2-3.6c1.3-1,2.5-1.5,3.6-1.4c0.3,0,0.6,0,0.8,0.1c0.2,0.1,0.5,0.2,0.8,0.5
				c0.6,0.8,0.8,1.8,0.5,3c-0.3,1.2-0.7,2.4-1.4,3.6c-0.7,1.2-1.4,2.3-2.2,3.3c-0.8,1-1.4,1.6-1.8,1.8c1,0.2,2.4,0.1,4.1-0.4
				c1.8-0.5,3.6-1,5.4-1.7c1.9-0.7,3.6-1.4,5.4-2.2c1.7-0.8,3-1.5,3.8-2.1c0.8,0,1.2,0.2,1.2,0.6c0.2,0.4,0.1,0.8-0.3,1.2
				c-1,0.7-2.4,1.5-4.2,2.3c-1.8,0.9-3.7,1.6-5.8,2.3c-2.1,0.7-4.1,1.2-6.2,1.6c-2.1,0.4-3.8,0.4-5.2,0.1c-2.6,1.7-4.8,2.5-6.6,2.4
				C246,121.7,244.6,121.3,243.8,120.6z M259.2,107c-0.7-0.1-1.5,0.3-2.4,1.1c-0.9,0.9-1.7,1.8-2.3,2.9c-0.7,1.1-1.1,2.2-1.3,3.4
				c-0.2,1.2,0.1,2,0.9,2.5c0.8-0.7,1.6-1.6,2.4-2.6c0.8-1.1,1.5-2.1,2-3.2c0.6-1.1,0.9-2,1.1-2.8
				C259.8,107.6,259.6,107.1,259.2,107z"/>
		</g>
		<g id="XMLID_16_">
			<path id="XMLID_33_" class="st0" d="M22,15.6c0.1-0.9,0.9-1.7,1.7-1.7h32.9c0.9,0,1.4,0.8,1.3,1.7l-1.1,7.3
				c-0.1,0.9-0.9,1.7-1.8,1.7H32.3l-2,14.6h18.8c0.8,0,1.4,0.8,1.3,1.7l-1.1,7.4c-0.2,1-1,1.7-1.8,1.7H28.7l-2.2,15.5h22.8
				c0.9,0,1.3,0.8,1.2,1.7l-1,7.3c-0.1,0.9-0.9,1.7-1.8,1.7H15c-0.9,0-1.4-0.8-1.2-1.7L22,15.6z"/>
			<path id="XMLID_31_" class="st0" d="M66.9,15.6c0.1-0.9,1-1.7,1.8-1.7h7.8c0.8,0,1.4,0.8,1.3,1.7l-8.3,58.8
				c-0.1,0.9-1,1.7-1.8,1.7h-7.9c-0.8,0-1.3-0.8-1.2-1.7L66.9,15.6z"/>
			<path id="XMLID_29_" class="st0" d="M99.7,42.6c-0.4-1.2,0.4-2,1.5-2h7c0.8,0,1.2,0.4,1.3,1l4.1,15.6c0.1,0,0.2,0,0.3,0l8.3-15.6
				c0.5-0.9,1.2-1,2.1-1h7.4c1.2,0,1.6,1.1,0.9,2.2l-19.5,33.3c-0.3,0.5-0.8,0.9-1.5,0.9h-0.4c-0.7,0-1.1-0.4-1.2-0.9L99.7,42.6z"/>
			<path id="XMLID_26_" class="st0" d="M138.8,42.2c0.2-1,1-1.7,1.8-1.7h7.8c0.8,0,1.5,0.7,1.3,1.7l-4.5,32.1
				c-0.1,0.9-1,1.7-1.8,1.7h-7.8c-0.8,0-1.4-0.8-1.3-1.7L138.8,42.2z M141,22.6c0-3.8,3.3-6.9,6.8-6.9c3.1,0,5.3,2.4,5.3,5.4
				c0,3.7-3.4,6.8-7,6.8C143.1,27.9,141,25.6,141,22.6z"/>
			<path id="XMLID_23_" class="st0" d="M186.9,74.4c-0.1,0.9-1,1.7-1.8,1.7h-3.5c-0.5,0-1.2-0.3-1.4-1.5l-0.5-2.7
				c-1.3,1.2-5.2,5.1-11.5,5.1c-7.5,0-13.1-7.3-13.1-16.3c0-11.5,7.9-21,18.3-21c5.1,0,8.7,3.2,9.9,4.9l1.6-2.8
				c0.4-0.6,0.8-1.2,1.6-1.2h3.5c0.8,0,1.4,0.7,1.2,1.7L186.9,74.4z M179.3,54.2c-0.3-1.5-2-5-5.8-5c-4.1,0-8.3,4.2-8.3,11.2
				c0,3.8,2.2,6.9,5.9,6.9c3.7,0,6.6-4,7.2-5.8L179.3,54.2z"/>
			<path id="XMLID_20_" class="st0" d="M201.9,42.2c0.2-1,1-1.7,1.8-1.7h8c0.8,0,1.4,0.7,1.2,1.7l-6.3,44.2
				c-1.5,10.9-7.7,17.1-17,17.1c-4.4,0-8.7-2.4-9.9-3.5c-0.5-0.5-0.5-1.5,0-2.3l2.8-4.9c0.6-1,1.6-1.1,2.2-0.7
				c1,0.5,2.8,1.4,4.7,1.4c3.6,0,5.7-2.8,6.4-8L201.9,42.2z M204.2,22.6c0-3.8,3.3-6.9,6.9-6.9c3,0,5.2,2.4,5.2,5.4
				c0,3.7-3.4,6.8-7,6.8C206.3,27.9,204.2,25.6,204.2,22.6z"/>
			<path id="XMLID_17_" class="st0" d="M239.2,39.7c7,0,11.4,4,11.4,9.4c0,9.1-13.2,12.1-22.3,12.2c-0.3,3.6,1.4,6.5,5.9,6.5
				c2.1,0,4.8-1.1,6.3-2.1c0.8-0.5,1.6-0.7,2,0l2.9,4.2c0.4,0.6,0.4,1.6-0.3,2.3c-3.1,2.8-7.5,4.9-12.7,4.9
				c-8.5,0-14.1-7.3-14.1-15.8C218.3,50.1,226.8,39.7,239.2,39.7z M240.5,50.1c0-1.2-1-2.2-3-2.2c-3.6,0-6.9,3.4-7.9,6.4
				C233.9,54.2,240.5,53,240.5,50.1z"/>
		</g>
	</g>
	<g id="XMLID_3_">
		<path id="XMLID_10_" d="M208.5,163.6c0.4,0,0.7,0.1,1.1,0.2c0.3,0.1,0.6,0.3,0.9,0.6c0.3,0.3,0.5,0.6,0.6,0.9
			c0.1,0.3,0.2,0.7,0.2,1.1c0,0.4-0.1,0.7-0.2,1.1c-0.1,0.3-0.3,0.6-0.6,0.9c-0.3,0.3-0.6,0.5-0.9,0.6c-0.3,0.1-0.7,0.2-1.1,0.2
			c-0.4,0-0.7-0.1-1.1-0.2c-0.3-0.1-0.6-0.3-0.9-0.6c-0.3-0.3-0.5-0.6-0.6-0.9c-0.1-0.3-0.2-0.7-0.2-1.1c0-0.4,0.1-0.7,0.2-1.1
			c0.1-0.3,0.3-0.6,0.6-0.9c0.3-0.3,0.5-0.5,0.9-0.6C207.7,163.7,208.1,163.6,208.5,163.6 M210.9,166.4c0-0.3-0.1-0.7-0.2-1
			c-0.1-0.3-0.3-0.6-0.5-0.8c-0.2-0.2-0.5-0.4-0.8-0.5c-0.3-0.1-0.6-0.2-1-0.2c-0.3,0-0.6,0.1-0.9,0.2c-0.3,0.1-0.6,0.3-0.8,0.5
			c-0.2,0.2-0.4,0.5-0.6,0.8c-0.1,0.3-0.2,0.6-0.2,0.9c0,0.3,0.1,0.6,0.2,0.9c0.1,0.3,0.3,0.6,0.5,0.8c0.2,0.2,0.5,0.4,0.8,0.5
			c0.3,0.1,0.6,0.2,0.9,0.2c0.3,0,0.6-0.1,0.9-0.2c0.3-0.1,0.6-0.3,0.8-0.5c0.2-0.2,0.4-0.5,0.5-0.8
			C210.9,167.1,210.9,166.8,210.9,166.4 M208.5,164.8c0.4,0,0.8,0.1,1,0.2c0.2,0.1,0.3,0.4,0.3,0.7c0,0.2-0.1,0.4-0.2,0.6
			c-0.1,0.2-0.3,0.2-0.5,0.3l0.7,1.5h-0.5l-0.7-1.4h-0.7v1.4h-0.5v-3.2H208.5z M208.5,165.1h-0.6v1.1h0.6c0.3,0,0.6,0,0.7-0.1
			c0.1-0.1,0.2-0.2,0.2-0.4c0-0.2-0.1-0.4-0.2-0.5C209,165.1,208.8,165.1,208.5,165.1"/>
		<path id="XMLID_4_" d="M79.6,183.5c0,3.4,0.9,6.1,2.8,8c1.9,1.9,4.5,2.9,7.8,2.9c3.3,0,5.9-1,7.9-3c2-2,3-4.6,3-7.8
			c0-3.5-1-6.2-2.9-8.2c-1.9-2-4.6-3-8-3c-3.3,0-5.9,1-7.8,2.9C80.5,177.3,79.6,180,79.6,183.5 M154.3,181.2h19.3v-0.4
			c0-2.7-0.9-4.8-2.5-6.3c-1.7-1.5-4.1-2.2-7.1-2.2c-2.8,0-5.1,0.8-6.8,2.4C155.4,176.3,154.4,178.5,154.3,181.2 M178.1,188.8v-4.2
			h-24c0.1,3.1,1,5.6,2.7,7.3c1.8,1.7,4.3,2.6,7.5,2.6c2.4,0,4.3-0.5,5.8-1.5c1.5-1,2.4-2.4,2.7-4.1H178.1z M178.1,197.5v-6.6
			c-0.7,2.1-2.1,3.8-3.9,4.9c-2.4,1.5-5.9,2.3-10.3,2.3c-4.8,0-8.5-1.3-11.2-3.8c-2.7-2.6-4.1-6.1-4.1-10.6c0-4.1,1.2-7.5,3.5-10.2
			h-0.4c-3.9,0-6.7,0.9-8.5,2.5c-1.8,1.7-2.7,4.4-2.7,8.1v13.3H135v-12.9h-24.5c0.1,3.1,1,5.6,2.7,7.3c1.8,1.7,4.3,2.6,7.5,2.6
			c2.4,0,4.3-0.5,5.8-1.5c1.5-1,2.4-2.4,2.7-4.1h5.8c-0.5,3.1-2,5.5-4.5,7c-2.4,1.5-5.9,2.3-10.3,2.3c-4.8,0-8.5-1.3-11.2-3.8
			c-1.2-1.2-2.2-2.5-2.9-4.1c0,1.4,0,2.7,0.1,3.7c0.1,1.2,0.2,2.5,0.4,3.6h-5.5l-0.4-4.3c-1.4,1.7-3.1,3-5,3.8
			c-1.9,0.8-4.1,1.2-6.6,1.2c-4.6,0-8.3-1.3-11-4c-2.7-2.7-4.1-6.3-4.1-10.8c0-4.5,1.4-8.1,4.2-10.7c2.8-2.7,6.5-4,11.1-4
			c2.3,0,4.4,0.4,6.3,1.1c1.9,0.7,3.6,1.9,5.2,3.4V157h5.4v20.2c0.7-1.7,1.8-3.2,3.1-4.5c2.9-2.7,6.8-4.1,11.7-4.1
			c4.7,0,8.3,1.3,10.8,3.8c1.6,1.6,2.7,3.6,3.2,6c0-1.3,0-2.7-0.1-4.1c-0.1-1.6-0.2-3.3-0.4-5h5.5l0.3,5.3c1-2,2.5-3.5,4.3-4.5
			c1.9-1,4.3-1.5,7.2-1.5h1v4.1c0,0,0,0,0.1-0.1c2.9-2.7,6.8-4.1,11.7-4.1c4.7,0,8.3,1.3,10.8,3.8c1.2,1.2,2.1,2.6,2.7,4.2V157h5.4
			v23.6l14.6-11.4h7.1l-15.6,12.1l18,16.1h-7.8l-16.4-15.6v15.6H178.1z M110.6,181.2h19.3v-0.4c0-2.7-0.9-4.8-2.5-6.3
			c-1.7-1.5-4.1-2.2-7.1-2.2c-2.8,0-5.1,0.8-6.8,2.4C111.7,176.3,110.8,178.5,110.6,181.2"/>
	</g>
</g>
</svg>
